<svg width="21" height="20" viewBox="0 0 21 20" fill="none" xmlns="http://www.w3.org/2000/svg">
<path fill-rule="evenodd" clip-rule="evenodd" d="M6.65997 11.5315H17.5963L19.1107 5.24413H5.1971L6.65997 11.5315ZM18.2076 13.1368H6.04317C5.68163 13.1368 5.36721 12.8821 5.28307 12.5207L2.7434 1.60534H0.781438C0.349836 1.60534 0 1.246 0 0.80267C0 0.359341 0.349836 0 0.781438 0H3.3602C3.72175 0 4.03617 0.254983 4.1203 0.616168L4.8236 3.63879H20.1091C20.3495 3.63879 20.5764 3.75225 20.7244 3.94675C20.8723 4.14126 20.9252 4.39465 20.8676 4.63438L18.9662 12.5273C18.8799 12.8853 18.5668 13.1368 18.2076 13.1368ZM17.0422 15.8737C16.4358 15.8737 15.9427 16.3647 15.9427 16.9684C15.9427 17.5721 16.4358 18.0631 17.0422 18.0631C17.6486 18.0631 18.1417 17.5721 18.1417 16.9684C18.1417 16.3647 17.6486 15.8737 17.0422 15.8737ZM17.0422 19.7053C15.5265 19.7053 14.2935 18.4775 14.2935 16.9684C14.2935 15.4593 15.5265 14.2316 17.0422 14.2316C18.5578 14.2316 19.7909 15.4593 19.7909 16.9684C19.7909 18.4775 18.5578 19.7053 17.0422 19.7053ZM6.04726 16.9684C6.04726 16.3647 6.54039 15.8737 7.14675 15.8737C7.75311 15.8737 8.24624 16.3647 8.24624 16.9684C8.24624 17.5721 7.75311 18.0631 7.14675 18.0631C6.54039 18.0631 6.04726 17.5721 6.04726 16.9684ZM4.39799 16.9684C4.39799 18.4775 5.63108 19.7053 7.14675 19.7053C8.66242 19.7053 9.89547 18.4775 9.89547 16.9684C9.89547 15.4593 8.66242 14.2316 7.14675 14.2316C5.63108 14.2316 4.39799 15.4593 4.39799 16.9684Z" fill="#4D4D4D"/>
</svg>
